<?xml version="1.0" standalone="no"?>
<!DOCTYPE svg PUBLIC "-//W3C//DTD SVG 20010904//EN"
 "http://www.w3.org/TR/2001/REC-SVG-20010904/DTD/svg10.dtd">
<svg version="1.0" xmlns="http://www.w3.org/2000/svg"
 width="512.000000pt" height="512.000000pt" viewBox="0 0 512.000000 512.000000"
 preserveAspectRatio="xMidYMid meet">
<metadata>
Created by potrace 1.16, written by Peter Selinger 2001-2019
</metadata>
<g transform="translate(0.000000,512.000000) scale(0.100000,-0.100000)"
fill="#000000" stroke="none">
<path d="M2340 5104 c-153 -40 -317 -157 -401 -287 l-38 -59 -128 -2 c-113 -2
-138 -6 -214 -33 -165 -57 -309 -181 -388 -333 -78 -149 -74 -115 -78 -871
l-4 -675 -57 27 c-118 57 -307 74 -460 43 -43 -8 -117 -34 -168 -59 -165 -80
-311 -245 -371 -419 -26 -76 -28 -91 -28 -246 1 -162 1 -167 33 -250 18 -47
49 -109 68 -139 20 -30 292 -395 604 -811 367 -489 586 -773 621 -803 73 -65
152 -112 251 -150 l83 -32 1105 -3 c786 -2 1122 0 1165 8 195 37 402 216 464
403 12 34 76 350 143 702 l122 640 4 805 c2 570 0 828 -8 885 -36 248 -206
454 -447 542 -37 13 -113 29 -169 35 l-102 12 -7 79 c-9 105 -28 177 -70 262
-64 131 -177 246 -311 313 -102 52 -158 64 -298 67 l-128 3 -39 61 c-86 131
-250 247 -404 286 -76 19 -270 19 -345 -1z m307 -387 c61 -32 118 -88 151
-152 l27 -50 3 -977 2 -978 50 0 50 0 2 793 c3 785 3 792 24 838 31 67 87 124
156 159 51 25 73 30 133 30 60 0 82 -5 133 -31 75 -37 134 -102 162 -175 19
-53 20 -75 20 -834 l0 -780 50 0 49 0 3 423 3 422 27 57 c116 247 440 250 570
6 l23 -43 0 -830 0 -830 -113 -590 c-62 -324 -117 -604 -123 -622 -17 -52 -73
-117 -130 -148 l-54 -30 -1040 -3 c-1012 -2 -1042 -2 -1105 17 -41 13 -82 34
-109 58 -25 20 -306 386 -626 813 -523 698 -583 781 -598 836 -22 78 -21 128
2 203 29 93 95 171 186 218 66 35 197 44 272 19 92 -31 125 -66 377 -400 l241
-321 5 1170 5 1170 27 51 c35 67 115 138 180 160 68 22 177 16 236 -15 59 -30
122 -95 152 -156 l25 -50 3 -792 3 -793 49 0 50 0 0 958 c0 656 4 970 11 997
25 94 111 183 209 219 63 23 163 15 227 -17z"/>
</g>
</svg>
