<?xml version="1.0" standalone="no"?>
<!DOCTYPE svg PUBLIC "-//W3C//DTD SVG 20010904//EN"
 "http://www.w3.org/TR/2001/REC-SVG-20010904/DTD/svg10.dtd">
<svg version="1.0" xmlns="http://www.w3.org/2000/svg"
 width="512.000000pt" height="512.000000pt" viewBox="0 0 512.000000 512.000000"
 preserveAspectRatio="xMidYMid meet">
<metadata>
Created by potrace 1.16, written by Peter Selinger 2001-2019
</metadata>
<g transform="translate(0.000000,512.000000) scale(0.100000,-0.100000)">
<path d="M2420 4383 c-101 -17 -231 -76 -312 -144 l-46 -39 -57 20 c-93 32
-212 44 -311 30 -165 -22 -285 -81 -404 -201 -108 -107 -167 -226 -194 -390
l-6 -36 -81 -7 c-107 -10 -179 -29 -264 -71 -131 -64 -246 -177 -313 -311 -66
-130 -66 -129 -70 -586 -3 -346 -1 -432 12 -500 18 -98 75 -219 138 -294 24
-29 246 -246 493 -484 l450 -432 6 -68 c13 -137 78 -271 176 -366 56 -54 107
-85 189 -116 l59 -23 1009 -3 c981 -2 1012 -2 1089 17 99 26 175 69 248 142
114 114 148 199 160 403 10 145 14 164 179 825 106 427 173 713 180 776 7 66
10 252 8 545 l-3 445 -29 84 c-70 199 -235 369 -428 439 -67 25 -86 27 -233
28 l-161 1 -75 74 c-87 86 -172 139 -284 176 -68 22 -98 26 -200 27 -131 0
-205 -14 -302 -60 -54 -26 -57 -26 -82 -10 -130 83 -248 117 -405 115 -61 -1
-122 -4 -136 -6z m261 -388 c88 -31 163 -107 212 -212 20 -44 22 -67 25 -270
l4 -223 48 0 49 0 3 218 c3 211 4 219 30 274 55 118 164 188 292 188 125 0
254 -98 291 -222 11 -39 15 -101 15 -255 l0 -203 49 0 48 0 6 87 c10 140 77
243 195 296 73 33 180 30 254 -6 71 -35 131 -101 158 -175 20 -54 21 -69 17
-516 l-3 -461 -173 -685 c-170 -675 -172 -687 -180 -827 -7 -130 -10 -145 -34
-182 -15 -22 -45 -50 -67 -61 -39 -20 -56 -20 -996 -20 l-957 0 -43 25 c-62
36 -84 79 -94 182 -11 110 -30 165 -78 225 -20 27 -243 244 -494 483 -405 386
-460 442 -487 497 l-31 61 0 392 0 392 30 61 c33 66 85 118 152 154 62 33 193
33 260 0 93 -46 157 -133 178 -241 5 -30 10 -167 10 -306 l0 -253 44 -36 c24
-20 47 -36 50 -36 3 0 7 296 8 658 l3 657 30 54 c129 234 451 224 563 -18 25
-52 27 -67 30 -228 l4 -173 48 0 49 0 3 228 3 228 33 66 c49 100 145 177 245
198 52 11 144 4 198 -15z"/>
</g>
</svg>
