<?xml version="1.0" standalone="no"?>
<!DOCTYPE svg PUBLIC "-//W3C//DTD SVG 20010904//EN"
 "http://www.w3.org/TR/2001/REC-SVG-20010904/DTD/svg10.dtd">
<svg version="1.0" xmlns="http://www.w3.org/2000/svg"
 width="512.000000pt" height="512.000000pt" viewBox="0 0 512.000000 512.000000"
 preserveAspectRatio="xMidYMid meet">
<metadata>
Created by potrace 1.16, written by Peter Selinger 2001-2019
</metadata>
<g transform="translate(0.000000,512.000000) scale(0.100000,-0.100000)"
fill="#000000" stroke="none">
<path d="M1058 4750 c-155 -28 -267 -89 -389 -210 -79 -79 -103 -110 -137
-180 -51 -105 -71 -179 -78 -295 -13 -211 60 -406 211 -560 77 -78 154 -128
266 -172 l73 -28 -200 -7 c-219 -7 -274 -17 -389 -72 -194 -92 -344 -271 -395
-472 -27 -106 -27 -282 0 -388 51 -201 201 -380 395 -472 139 -66 146 -67 620
-71 l430 -5 -3 -105 c-4 -127 14 -220 62 -319 61 -127 145 -221 263 -293 51
-31 51 -32 58 -94 11 -102 33 -177 83 -277 85 -175 233 -296 422 -347 57 -16
116 -18 500 -18 403 0 444 2 560 22 168 30 1189 287 1268 320 187 77 328 225
405 426 l32 82 3 1090 c3 1220 6 1166 -68 1313 -96 189 -263 329 -465 388 -54
16 -126 18 -703 21 l-642 4 -903 343 c-496 189 -927 351 -957 360 -64 20 -252
29 -322 16z m1173 -738 l947 -362 88 0 89 0 -95 -87 c-206 -187 -285 -274
-311 -338 -23 -58 -24 -69 -27 -391 -3 -330 -3 -331 -25 -342 -12 -5 -161 -73
-331 -151 l-309 -141 -806 2 -806 3 -66 32 c-79 39 -140 102 -177 181 -22 48
-27 71 -27 142 0 71 5 94 27 142 37 79 98 142 177 181 l66 32 957 3 958 2 0
98 0 97 -747 284 c-412 156 -770 295 -796 309 -62 33 -122 99 -155 170 -23 49
-27 70 -27 147 0 77 4 98 27 147 42 90 131 167 228 199 14 5 63 7 110 5 85 -3
86 -3 1031 -364z m2310 -395 c70 -34 142 -109 177 -185 l27 -57 3 -1014 c3
-1128 6 -1075 -64 -1178 -39 -56 -76 -88 -141 -121 -64 -33 -1137 -298 -1263
-312 -58 -6 -178 -10 -267 -8 l-163 3 428 194 c235 106 448 207 475 223 92 58
156 160 177 281 31 176 -65 363 -225 439 -33 15 -68 28 -77 28 -26 0 -23 8 23
57 22 25 53 70 67 101 l27 57 3 358 3 357 -50 0 -50 0 -3 -342 c-3 -335 -4
-344 -26 -390 -104 -210 -352 -258 -512 -98 -23 23 -52 63 -64 89 -21 45 -21
56 -21 541 l0 495 26 55 c22 47 61 88 243 258 l216 203 488 -3 487 -3 56 -28z
m-1604 -1502 c36 -107 116 -201 213 -248 l68 -33 -492 -224 -491 -225 -90 0
c-74 0 -98 4 -133 23 -106 56 -176 168 -176 283 0 55 6 78 32 132 19 39 50 81
73 101 23 19 116 69 207 111 92 42 302 138 467 213 l300 137 6 -120 c4 -66 11
-134 16 -150z m687 -311 c57 -20 149 -101 178 -158 15 -28 23 -66 26 -122 4
-72 1 -89 -21 -137 -52 -115 -55 -117 -660 -391 -446 -203 -557 -250 -601
-254 -215 -18 -384 215 -306 421 28 75 67 118 149 167 57 34 899 422 1021 471
57 23 152 24 214 3z"/>
</g>
</svg>
