<?xml version="1.0" standalone="no"?>
<!DOCTYPE svg PUBLIC "-//W3C//DTD SVG 20010904//EN"
 "http://www.w3.org/TR/2001/REC-SVG-20010904/DTD/svg10.dtd">
<svg version="1.0" xmlns="http://www.w3.org/2000/svg"
 width="512.000000pt" height="512.000000pt" viewBox="0 0 512.000000 512.000000"
 preserveAspectRatio="xMidYMid meet">

<g transform="translate(0.000000,512.000000) scale(0.100000,-0.100000)"
fill="red" stroke="none">
<path d="M2370 5114 c-19 -2 -78 -9 -130 -15 -791 -90 -1522 -586 -1924 -1305
-146 -262 -252 -588 -297 -914 -18 -125 -18 -515 0 -640 80 -582 327 -1083
732 -1489 720 -720 1787 -944 2740 -576 167 64 453 219 539 292 119 99 78 302
-68 343 -78 21 -109 13 -224 -61 -192 -123 -423 -225 -630 -278 -1107 -286
-2243 334 -2597 1415 -148 452 -148 896 0 1348 214 653 723 1162 1378 1376
449 147 894 147 1345 -1 488 -160 893 -481 1171 -929 83 -134 150 -282 205
-450 188 -573 134 -1159 -156 -1707 -54 -104 -64 -130 -64 -173 0 -187 223
-268 348 -126 44 50 179 326 230 470 335 942 104 1971 -599 2675 -399 398
-879 639 -1449 726 -100 15 -472 28 -550 19z"/>
<path d="M1278 3420 c-88 -15 -158 -99 -158 -191 -1 -32 63 -226 237 -727 256
-739 256 -738 344 -782 90 -46 227 -13 284 70 16 23 111 294 251 711 176 529
225 685 225 726 1 102 -73 182 -175 191 -69 6 -115 -10 -159 -55 -33 -32 -48
-71 -178 -462 -78 -234 -144 -429 -148 -433 -4 -4 -63 153 -131 350 -154 444
-176 505 -202 537 -38 49 -119 77 -190 65z"/>
<path d="M3189 3397 c-198 -60 -336 -208 -370 -397 -24 -135 20 -281 116 -388
53 -59 125 -98 340 -182 227 -89 256 -102 291 -135 43 -40 45 -80 8 -125 -43
-50 -93 -70 -177 -70 -123 0 -208 33 -300 117 -57 53 -101 73 -162 73 -154 0
-248 -179 -161 -310 67 -101 263 -221 426 -260 117 -28 279 -27 380 1 143 39
261 123 339 240 105 157 109 365 9 521 -43 69 -143 158 -223 199 -39 20 -158
71 -265 114 -107 42 -203 85 -214 95 -26 25 -13 73 26 102 24 17 49 23 112 26
98 5 161 -14 265 -81 125 -81 203 -84 284 -8 63 58 80 151 41 226 -36 70 -197
174 -352 228 -76 27 -103 31 -212 34 -108 3 -135 0 -201 -20z"/>
</g>
</svg>
